<svg width="54" height="54" viewBox="0 0 54 54" fill="none" xmlns="http://www.w3.org/2000/svg">
<path d="M54 27C54 12.0883 41.9117 0 27 0C12.0883 0 0 12.0883 0 27C0 41.9117 12.0883 54 27 54C41.9117 54 54 41.9117 54 27ZM28.6875 38.8125C28.6875 39.7445 27.932 40.5 27 40.5C26.068 40.5 25.3125 39.7445 25.3125 38.8125V19.2615L18.0682 26.5057C17.4092 27.1648 16.3408 27.1648 15.6818 26.5057C15.0227 25.8467 15.0227 24.7783 15.6818 24.1193L25.8068 13.9943C26.4658 13.3352 27.5342 13.3352 28.1932 13.9943L38.3182 24.1193C38.9773 24.7783 38.9773 25.8467 38.3182 26.5057C37.6592 27.1648 36.5908 27.1648 35.9318 26.5057L28.6875 19.2615V38.8125Z" fill="#00460F"/>
</svg>
