<svg width="54" height="54" viewBox="0 0 54 54" fill="none" xmlns="http://www.w3.org/2000/svg">
<path d="M54 27C54 41.9117 41.9117 54 27 54C12.0883 54 0 41.9117 0 27C0 12.0883 12.0883 0 27 0C41.9117 0 54 12.0883 54 27ZM28.6875 15.1875C28.6875 14.2555 27.932 13.5 27 13.5C26.068 13.5 25.3125 14.2555 25.3125 15.1875V34.7385L18.0682 27.4943C17.4092 26.8352 16.3408 26.8352 15.6818 27.4943C15.0227 28.1533 15.0227 29.2217 15.6818 29.8807L25.8068 40.0057C26.4658 40.6648 27.5342 40.6648 28.1932 40.0057L38.3182 29.8807C38.9773 29.2217 38.9773 28.1533 38.3182 27.4943C37.6592 26.8352 36.5908 26.8352 35.9318 27.4943L28.6875 34.7385V15.1875Z" fill="#C60202"/>
</svg>
